<?xml version="1.0"?>
<!-- Generated by SVGo -->
<svg width="818" height="646"
     xmlns="http://www.w3.org/2000/svg"
     xmlns:xlink="http://www.w3.org/1999/xlink">
<defs>
<style>
@font-face {
  font-family: 'DejaVuSans';
  src: url('https://fontlibrary.org/assets/fonts/dejavu-sans/f5ec8426554a3a67ebcdd39f9c3fee83/49c0f03ec2fa354df7002bcb6331e106/DejaVuSansBook.ttf') format('truetype');
  font-weight: normal;
  font-style: normal;
}
</style>
</defs>
<line x1="144" y1="33" x2="144" y2="613" style="stroke-dasharray:8,8;stroke-width:2px;stroke:black;" />
<rect x="88" y="17" width="112" height="32" style="fill:white;stroke-width:2px;stroke:black;" />
<text x="104" y="38" style="fill:black;font-family:DejaVuSans,sans-serif;font-size:16px;" >Konnector</text>
<rect x="88" y="597" width="112" height="32" style="fill:white;stroke-width:2px;stroke:black;" />
<text x="104" y="618" style="fill:black;font-family:DejaVuSans,sans-serif;font-size:16px;" >Konnector</text>
<line x1="510" y1="33" x2="510" y2="613" style="stroke-dasharray:8,8;stroke-width:2px;stroke:black;" />
<rect x="451" y="8" width="118" height="50" style="fill:white;stroke-width:2px;stroke:black;" />
<text x="467" y="29" style="fill:black;font-family:DejaVuSans,sans-serif;font-size:16px;" >cozy-stack</text>
<text x="481" y="47" style="fill:black;font-family:DejaVuSans,sans-serif;font-size:16px;" >(proxy)</text>
<rect x="451" y="588" width="118" height="50" style="fill:white;stroke-width:2px;stroke:black;" />
<text x="467" y="609" style="fill:black;font-family:DejaVuSans,sans-serif;font-size:16px;" >cozy-stack</text>
<text x="481" y="627" style="fill:black;font-family:DejaVuSans,sans-serif;font-size:16px;" >(proxy)</text>
<line x1="741" y1="33" x2="741" y2="613" style="stroke-dasharray:8,8;stroke-width:2px;stroke:black;" />
<rect x="680" y="17" width="123" height="32" style="fill:white;stroke-width:2px;stroke:black;" />
<text x="696" y="38" style="fill:black;font-family:DejaVuSans,sans-serif;font-size:16px;" >Web server</text>
<rect x="680" y="597" width="123" height="32" style="fill:white;stroke-width:2px;stroke:black;" />
<text x="696" y="618" style="fill:black;font-family:DejaVuSans,sans-serif;font-size:16px;" >Web server</text>
<rect x="24" y="74" width="240" height="22" style="stroke:black;fill:white;stroke-width:2px;" />
<text x="32" y="90" style="font-family:DejaVuSans,sans-serif;font-size:14px;" >exec lib.categorize(transactions)</text>
<rect x="160" y="112" width="334" height="14" style="fill:white;stroke:white;" />
<text x="160" y="124" style="font-family:DejaVuSans,sans-serif;font-size:14px;" >GET /remote/assets/bank_classifier_nb_and_voc</text>
<line x1="144" y1="130" x2="510" y2="130" style="stroke:black;stroke-width:2px;" />
<polyline points="501,125 510,130 501,135" style="fill:black;stroke-width:2px;stroke:black;" />
<rect x="518" y="146" width="219" height="30" style="fill:white;stroke:white;" />
<text x="518" y="158" style="font-family:DejaVuSans,sans-serif;font-size:14px;" >Find the url of this remote asset</text>
<text x="518" y="174" style="font-family:DejaVuSans,sans-serif;font-size:14px;" >set in your cozy config</text>
<polyline points="510,182 558,182 558,206 510,206" style="fill:none;stroke:black;stroke-width:2px;" />
<polyline points="519,201 510,206 519,211" style="fill:black;stroke-width:2px;stroke:black;" />
<rect x="595" y="248" width="60" height="14" style="fill:white;stroke:white;" />
<text x="595" y="260" style="font-family:DejaVuSans,sans-serif;font-size:14px;" >GET $url</text>
<line x1="510" y1="266" x2="741" y2="266" style="stroke:black;stroke-width:2px;" />
<polyline points="732,261 741,266 732,271" style="fill:black;stroke-width:2px;stroke:black;" />
<rect x="355" y="282" width="176" height="14" style="fill:white;stroke:white;" />
<text x="355" y="294" style="font-family:DejaVuSans,sans-serif;font-size:14px;" >HTTP 200 JSON response</text>
<line x1="741" y1="300" x2="144" y2="300" style="stroke:black;stroke-width:2px;" />
<polyline points="153,295 144,300 153,305" style="fill:black;stroke-width:2px;stroke:black;" />
<rect x="152" y="316" width="174" height="14" style="fill:white;stroke:white;" />
<text x="152" y="328" style="font-family:DejaVuSans,sans-serif;font-size:14px;" >Initialize the global model</text>
<polyline points="144,336 192,336 192,360 144,360" style="fill:none;stroke:black;stroke-width:2px;" />
<polyline points="153,355 144,360 153,365" style="fill:black;stroke-width:2px;stroke:black;" />
<rect x="152" y="376" width="256" height="14" style="fill:white;stroke:white;" />
<text x="152" y="388" style="font-family:DejaVuSans,sans-serif;font-size:14px;" >globalModel.categorize(transactions)</text>
<polyline points="144,396 192,396 192,420 144,420" style="fill:none;stroke:black;stroke-width:2px;" />
<polyline points="153,415 144,420 153,425" style="fill:black;stroke-width:2px;stroke:black;" />
<rect x="36" y="222" width="91" height="22" style="stroke:none;fill:white;" />
<text x="44" y="238" style="font-family:DejaVuSans,sans-serif;font-size:14px;" >[url found]</text>
<polygon points="8,222 8,244 29,244 36,237 36,222" style="stroke:black;stroke-width:2px;fill:white;" />
<text x="12" y="238" style="font-family:DejaVuSans,sans-serif;font-size:14px;" >alt</text>
<polyline points="8,444 8,222 810,222 810,444" style="stroke:black;stroke-dasharray:4,4;stroke-width:2px;fill:none;" />
<rect x="293" y="470" width="68" height="14" style="fill:white;stroke:white;" />
<text x="293" y="482" style="font-family:DejaVuSans,sans-serif;font-size:14px;" >HTTP 404</text>
<line x1="510" y1="488" x2="144" y2="488" style="stroke:black;stroke-width:2px;" />
<polyline points="153,483 144,488 153,493" style="fill:black;stroke-width:2px;stroke:black;" />
<rect x="152" y="504" width="235" height="30" style="fill:white;stroke:white;" />
<text x="152" y="516" style="font-family:DejaVuSans,sans-serif;font-size:14px;" >The global model isn&#39;t initialized</text>
<text x="152" y="532" style="font-family:DejaVuSans,sans-serif;font-size:14px;" >(Konnector goes to the next step)</text>
<polyline points="144,540 192,540 192,564 144,564" style="fill:none;stroke:black;stroke-width:2px;" />
<polyline points="153,559 144,564 153,569" style="fill:black;stroke-width:2px;stroke:black;" />
<polygon points="8,580 8,444 810,444 810,580" style="stroke:black;stroke-dasharray:4,4;stroke-width:2px;fill:none;" />
</svg>
